<?xml version="1.0" encoding="utf-8"?>
<!-- Generator: Adobe Illustrator 24.0.0, SVG Export Plug-In . SVG Version: 6.00 Build 0)  -->
<svg version="1.1" id="Layer_1" xmlns="http://www.w3.org/2000/svg" xmlns:xlink="http://www.w3.org/1999/xlink" x="0px" y="0px"
	 viewBox="0 0 59.7 50.2" style="enable-background:new 0 0 59.7 50.2;" xml:space="preserve">
<style type="text/css">
	.st0{fill:#FFFFFF;}
	.st1{fill:#F47723;}
</style>
<path class="st0" d="M50.9,29.4c-0.2-0.1-0.2-0.2-0.3-0.3C45.3,23,40,16.8,34.7,10.6c-1.7-2-3.4-3.9-5-5.9c-0.7-0.9-1.3-1.8-2.1-2.7
	c-1.1-1.2-2.4-1.8-4.1-1.5c-2,0.4-3.5,2.2-3.5,4.4c0,12.4,0,24.8,0,37.3c0,0.1,0,0.3,0,0.4c2.9,0,5.8,0,8.7,0c0-8.8,0-17.6,0-26.4
	c0,0,0.1,0,0.1-0.1c0.1,0.1,0.1,0.2,0.2,0.3c1.5,1.6,3,3.2,4.5,4.8c5.9,6.4,11.9,12.8,17.8,19.2c0.7,0.8,1.5,1.4,2.5,1.8
	c1.7,0.8,3.5,0.5,4.7-0.9c0.9-1,1.2-2.1,1.2-3.4c0-12.5,0-25,0-37.5c0-0.1,0-0.3,0-0.4c-2.9,0-5.8,0-8.6,0
	C50.9,9.8,50.9,19.5,50.9,29.4z"/>
<path class="st0" d="M8.7,9.2C8.5,9.3,8.4,9.3,8.4,9.4c-2.7,1.6-5.3,3.3-8,4.9C0.1,14.5,0,14.6,0,14.9C0,24,0,33.1,0,42.1
	c0,0.1,0,0.3,0,0.4c2.9,0,5.8,0,8.7,0C8.7,31.4,8.7,20.4,8.7,9.2z"/>
<path class="st1" d="M1.9,50.2c0.3,0,0.5,0,0.8,0c0.3,0,0.6,0,1,0c0.4,0,0.7-0.4,0.7-0.8c0-0.2,0-0.5,0-0.7C4.4,48.3,4,48,3.6,48
	c-0.2,0-0.5,0-0.7,0c-0.5,0-1.1,0-1.6,0c-0.2,0-0.3-0.1-0.3-0.3c0-0.1,0-0.1,0-0.2c0-0.3,0.1-0.4,0.4-0.4c0.9,0,1.8,0,2.7,0
	c0.1,0,0.2,0,0.2-0.2c0-0.1,0-0.3,0-0.4c0-0.1,0-0.2-0.2-0.2c-1,0-2.1,0-3.1,0c-0.4,0-0.7,0.2-0.8,0.7c0,0.3,0,0.6,0,0.9
	c0.1,0.5,0.4,0.7,0.8,0.7c0.7,0,1.4,0,2.1,0c0.1,0,0.1,0,0.2,0c0.1,0,0.2,0.1,0.2,0.2c0,0.1,0,0.2,0,0.4c0,0.2-0.1,0.2-0.2,0.3
	c-0.1,0-0.2,0-0.3,0c-0.9,0-1.8,0-2.7,0c-0.1,0-0.2,0-0.2,0.2c0,0.1,0,0.3,0,0.4c0,0.1,0,0.2,0.2,0.2C0.9,50.2,1.4,50.2,1.9,50.2z"
	/>
<path class="st1" d="M20.3,50.2c0.4,0,0.8,0,1.2,0c0.2,0,0.3,0,0.5,0c0.4,0,0.6-0.3,0.7-0.6c0-0.3,0-0.6,0-1c0-0.3-0.2-0.6-0.6-0.7
	c-0.1,0-0.3,0-0.4,0c-0.7,0-1.4,0-2.1,0c-0.2,0-0.3-0.1-0.3-0.3c0-0.1,0-0.1,0-0.2c0-0.3,0.1-0.4,0.4-0.4c0.9,0,1.8,0,2.7,0
	c0.1,0,0.2,0,0.2-0.2c0-0.1,0-0.3,0-0.4c0-0.1,0-0.2-0.2-0.2c-1,0-2.1,0-3.1,0c-0.4,0-0.7,0.3-0.8,0.7c0,0.2,0,0.5,0,0.8
	c0,0.5,0.3,0.8,0.8,0.8c0.7,0,1.4,0,2.1,0c0.1,0,0.1,0,0.2,0c0.1,0,0.2,0.1,0.2,0.2c0,0.1,0,0.2,0,0.4c0,0.1-0.1,0.2-0.2,0.2
	c-0.1,0-0.2,0-0.3,0c-0.9,0-1.8,0-2.6,0c-0.1,0-0.2,0-0.2,0.2c0,0.1,0,0.3,0,0.4c0,0.1,0,0.2,0.2,0.2C19.3,50.2,19.8,50.2,20.3,50.2
	z"/>
<path class="st1" d="M39.5,47.9c-0.5,0-1,0-1.5,0c-0.1,0-0.1,0-0.1-0.1c0-0.1,0-0.1,0-0.2c0-0.3,0.2-0.4,0.4-0.5c0.1,0,0.2,0,0.3,0
	c0.8,0,1.6,0,2.4,0c0.1,0,0.2,0,0.2-0.2c0-0.1,0-0.2,0-0.4c0-0.2,0-0.2-0.2-0.2c-0.8,0-1.6,0-2.3,0c-0.2,0-0.4,0-0.6,0
	c-0.4,0.1-0.7,0.3-0.9,0.7c-0.1,0.2-0.1,0.4-0.1,0.6c0,0.4,0,0.7,0,1.1c0,0.2,0,0.3,0,0.5c0.1,0.5,0.3,0.8,0.8,0.9
	c0.2,0,0.4,0.1,0.5,0.1c0.9,0,1.8,0,2.6,0c0.1,0,0.1,0,0.1-0.1c0-0.1,0-0.3,0-0.4c0-0.2,0-0.2-0.2-0.2c-0.8,0-1.7,0-2.5,0
	c-0.3,0-0.5-0.2-0.6-0.5c0-0.1,0-0.2,0-0.3c0-0.1,0-0.1,0.1-0.1c0.8,0,1.5,0,2.3,0c0.2,0,0.5,0,0.7,0c0.1,0,0.1,0,0.1-0.1
	c0-0.1,0-0.2,0-0.3c0-0.2,0-0.2-0.2-0.2C40.5,47.9,40,47.9,39.5,47.9z"/>
<path class="st1" d="M29.9,46.3c-0.7,0-1.4,0-2.1,0c-0.2,0-0.2,0-0.2,0.2c0,0.2,0,0.3,0,0.5c0,0.1,0,0.2,0.2,0.2c0.5,0,1.1,0,1.6,0
	c0.1,0,0.1,0,0.1,0.2c0,0.9,0,1.9,0,2.8c0,0.1,0,0.2,0.2,0.2c0.2,0,0.3,0,0.5,0c0.2,0,0.2,0,0.2-0.2c0-0.9,0-1.9,0-2.8
	c0-0.2,0-0.2,0.2-0.2c0.5,0,1,0,1.6,0c0.1,0,0.2,0,0.2-0.2c0-0.1,0-0.3,0-0.4c0-0.2,0-0.2-0.2-0.2C31.3,46.3,30.6,46.3,29.9,46.3z"
	/>
<path class="st1" d="M11.5,48.4c0,0-0.1-0.1-0.1-0.1c-0.5-0.6-0.9-1.2-1.4-1.9c-0.1-0.1-0.1-0.1-0.2-0.1c-0.2,0-0.4,0-0.6,0
	c-0.1,0-0.1,0-0.2,0c0,0.1,0,0.1,0.1,0.2c0.6,0.8,1.2,1.6,1.9,2.4c0,0.1,0.1,0.1,0.1,0.2c0,0.3,0,0.6,0,0.9c0,0.1,0,0.2,0.2,0.2
	c0.2,0,0.3,0,0.5,0c0.1,0,0.2,0,0.2-0.2c0-0.3,0-0.6,0-0.9c0-0.1,0-0.1,0.1-0.2c0.6-0.8,1.3-1.7,1.9-2.5c0,0,0-0.1,0-0.1
	c0,0-0.1,0-0.1,0c-0.2,0-0.4,0-0.6,0c-0.1,0-0.1,0-0.2,0.1c-0.4,0.5-0.8,1.1-1.2,1.6C11.7,48.2,11.6,48.3,11.5,48.4z"/>
<path class="st0" d="M0.1,10c0.1-0.1,0.2-0.1,0.2-0.1c2.7-1.6,5.4-3.3,8.1-5c0.1-0.1,0.2-0.3,0.2-0.5c0-1.2,0-2.5,0-3.7
	c0-0.3-0.1-0.4-0.4-0.4c-2.6,0-5.1,0-7.7,0c-0.4,0-0.5,0.1-0.5,0.5c0,2.6,0,5.2,0,7.8C0.1,9,0.1,9.4,0.1,10z"/>
<path d="M50.9,29.4c0-9.9,0-19.6,0-29.4c2.9,0,5.7,0,8.6,0c0,0.1,0,0.3,0,0.4c0,12.5,0,25,0,37.5c0,1.3-0.3,2.4-1.2,3.4
	c-1.2,1.3-3,1.7-4.7,0.9c-1-0.5-1.8-1.1-2.5-1.8c-5.9-6.4-11.9-12.8-17.8-19.2c-1.5-1.6-3-3.2-4.5-4.8c-0.1-0.1-0.1-0.2-0.2-0.3
	c0,0-0.1,0-0.1,0.1c0,8.8,0,17.6,0,26.4c-2.9,0-5.8,0-8.7,0c0-0.1,0-0.3,0-0.4c0-12.4,0-24.8,0-37.3c0-2.2,1.4-4.1,3.5-4.4
	c1.6-0.3,3,0.3,4.1,1.5c0.7,0.8,1.4,1.8,2.1,2.7c1.7,2,3.3,4,5,5.9c5.3,6.2,10.7,12.4,16,18.6C50.7,29.2,50.8,29.3,50.9,29.4z"/>
<path d="M8.7,9.2c0,11.1,0,22.2,0,33.3c-2.9,0-5.7,0-8.7,0c0-0.1,0-0.3,0-0.4C0,33.1,0,24,0,14.9c0-0.3,0.1-0.5,0.3-0.6
	c2.7-1.6,5.3-3.3,8-4.9C8.4,9.3,8.5,9.3,8.7,9.2z"/>
<path class="st1" d="M45.4,48.4c0-0.5,0-1.1,0-1.6c0-0.3,0.1-0.4,0.4-0.4c0.3,0,0.5,0,0.8,0c0.2,0,0.3,0.1,0.4,0.2
	c0.1,0.2,0.2,0.4,0.3,0.6c0.3,0.7,0.6,1.5,1,2.2c0,0.1,0.1,0.1,0.1,0.1c0.1,0,0.1-0.1,0.2-0.1c0.4-0.9,0.8-1.7,1.1-2.6
	c0-0.1,0-0.1,0.1-0.2c0.1-0.2,0.2-0.3,0.4-0.3c0.3,0,0.5,0,0.8,0c0.2,0,0.4,0.1,0.4,0.4c0,0.1,0,0.2,0,0.4c0,1,0,2,0,3
	c0,0.2,0,0.2-0.2,0.2c-0.1,0-0.3,0-0.4,0c-0.1,0-0.2,0-0.2-0.2c0-0.9,0-1.8,0-2.7c0,0,0-0.1,0-0.1c0,0,0-0.1,0-0.1c0,0-0.1,0-0.1,0
	c0,0,0,0.1,0,0.1c-0.4,0.8-0.7,1.6-1.1,2.5c0,0.1-0.1,0.1-0.1,0.2c-0.1,0.2-0.2,0.3-0.4,0.3c-0.2,0-0.4,0-0.6,0
	c-0.2,0-0.4-0.2-0.5-0.4c-0.1-0.2-0.2-0.4-0.3-0.7c-0.3-0.6-0.6-1.3-0.9-1.9c0,0,0-0.1,0-0.1c0,0-0.1,0-0.1,0c0,0,0,0.1-0.1,0.1
	c0,0,0,0.1,0,0.1c0,0.9,0,1.8,0,2.7c0,0.2,0,0.2-0.2,0.2c-0.1,0-0.3,0-0.4,0c-0.2,0-0.2,0-0.2-0.2C45.4,49.5,45.4,49,45.4,48.4
	C45.4,48.4,45.4,48.4,45.4,48.4z"/>
<path class="st1" d="M57.2,50.2c-0.5,0-1,0-1.6,0c-0.1,0-0.2,0-0.2-0.2c0-0.1,0-0.3,0-0.4c0-0.1,0-0.2,0.2-0.2c0.9,0,1.8,0,2.8,0
	c0.1,0,0.1,0,0.2,0c0.2,0,0.3-0.1,0.3-0.3c0-0.1,0-0.3,0-0.4c0-0.1-0.1-0.2-0.2-0.2c-0.1,0-0.1,0-0.2,0c-0.7,0-1.4,0-2.1,0
	c-0.5,0-0.8-0.3-0.8-0.8c0-0.3,0-0.5,0-0.8c0.1-0.4,0.4-0.7,0.8-0.7c1,0,2.1,0,3.1,0c0.1,0,0.1,0,0.1,0.1c0,0.1,0,0.3,0,0.4
	c0,0.1,0,0.2-0.2,0.2c-0.9,0-1.8,0-2.7,0c0,0-0.1,0-0.1,0c-0.2,0-0.2,0.1-0.3,0.2c0,0.1,0,0.3,0,0.4c0,0.2,0.1,0.2,0.3,0.2
	c0.7,0,1.4,0,2.1,0c0.1,0,0.2,0,0.4,0c0.3,0.1,0.6,0.3,0.6,0.7c0,0.3,0,0.6,0,0.9c0,0.4-0.3,0.7-0.7,0.7c-0.1,0-0.2,0-0.4,0
	C58.1,50.2,57.7,50.2,57.2,50.2z"/>
<path class="st1" d="M0.1,10c0-0.5,0-1,0-1.4c0-2.6,0-5.2,0-7.8c0-0.4,0.1-0.5,0.5-0.5c2.6,0,5.1,0,7.7,0c0.3,0,0.4,0.1,0.4,0.4
	c0,1.2,0,2.5,0,3.7c0,0.2-0.1,0.4-0.2,0.5C5.7,6.6,3,8.2,0.2,9.9C0.2,9.9,0.2,9.9,0.1,10z"/>
</svg>
