<?xml version="1.0" encoding="utf-8"?>
<!-- Generator: Adobe Illustrator 24.0.0, SVG Export Plug-In . SVG Version: 6.00 Build 0)  -->
<svg version="1.1" id="Layer_1" xmlns="http://www.w3.org/2000/svg" xmlns:xlink="http://www.w3.org/1999/xlink" x="0px" y="0px"
	 viewBox="0 0 262.74 69.22" style="enable-background:new 0 0 262.74 69.22;" xml:space="preserve">
<style type="text/css">
	.st0{fill:#FFFFFF;}
	.st1{fill:#F47723;}
</style>
<path class="st0" d="M151.84,29.47c0.16-0.05,0.27-0.08,0.38-0.11c5.91-1.69,9.96-7.02,9.92-13.16c-0.02-3.94-1.47-7.3-4.34-10
	c-2.42-2.27-5.32-3.55-8.65-3.57c-9.3-0.04-18.6-0.01-27.9-0.01h-0.41V45.2h9.93V30.01h0.49c3.83,0,7.65,0,11.47-0.01
	c0.37-0.01,0.58,0.11,0.79,0.4c3.55,4.78,7.12,9.55,10.68,14.33c0.18,0.25,0.37,0.36,0.69,0.36c2.76-0.02,5.52-0.01,8.27-0.01h0.5
	C159.69,39.84,155.78,34.67,151.84,29.47z M147.89,22.45c-6.02,0.03-12.03,0.02-18.05,0.02c-0.1,0-0.2-0.01-0.34-0.02V11.29
	c0.16-0.01,0.3-0.02,0.43-0.02h17.55c1.73,0,3.3,0.42,4.57,1.67c2.91,2.87,1.82,7.8-2.06,9.14
	C149.32,22.31,148.59,22.45,147.89,22.45z"/>
<path class="st0" d="M201.16,27.79c0,0.59,0.01,1.15,0,1.71c-0.03,1.49-0.33,2.9-1.15,4.16c-0.86,1.32-2.05,2.1-3.67,2.1
	c-3.43,0.01-6.85-0.02-10.28,0.02c-1.92,0.03-3.54-0.61-4.93-1.88c-1.3-1.19-2.21-2.62-2.22-4.44c-0.03-4.24-0.02-8.48-0.02-12.72
	c0-1.9,0.97-3.18,2.58-4.04c1.39-0.74,2.9-0.95,4.46-0.95c6.57,0.01,13.14,0,19.71,0c0.16,0,0.32,0,0.49,0c0-3.07,0-6.09,0-9.14
	c-0.17,0-0.33,0-0.48,0c-7.43,0-14.86-0.02-22.29,0.01c-3.06,0.01-5.87,0.9-8.35,2.71c-3.17,2.31-4.82,5.43-4.81,9.39
	c0.01,5.57,0,11.15,0.01,16.72c0,0.64,0.07,1.28,0.18,1.91c0.61,3.4,2.31,6.19,4.91,8.42c2.56,2.2,5.51,3.35,8.94,3.31
	c4.49-0.06,8.98-0.02,13.47-0.01c2.09,0,4.04-0.54,5.78-1.69c4.09-2.72,6.09-6.66,6.29-11.46c0.17-3.94,0.04-7.89,0.04-11.84
	c0-0.05-0.02-0.09-0.03-0.14c-6.21,0-12.4,0-18.57,0c0,2.62,0,5.22,0,7.84C194.55,27.79,197.83,27.79,201.16,27.79z"/>
<path class="st0" d="M111.01,2.62c-0.19,0-0.35,0-0.52,0c-8.35,0-16.7,0-25.06,0c-2.74,0-5.23,0.82-7.41,2.48
	c-2.66,2.03-4.06,4.71-4.05,8.1c0.01,6.68,0,13.35,0.01,20.03c0,0.6,0.06,1.21,0.18,1.79c0.64,3.24,2.36,5.8,4.97,7.78
	c1.87,1.42,3.98,2.27,6.36,2.28c8.36,0.01,16.73,0,25.09,0c0.14,0,0.27,0,0.42,0c0-3.12,0-6.19,0-9.3c-0.19,0-0.35,0-0.51,0
	c-7.45,0-14.91-0.01-22.36,0.01c-1.24,0-2.28-0.38-3.18-1.21c-0.95-0.87-1.59-1.93-1.98-3.15c-0.51-1.59-0.27-3.23-0.3-4.85
	c0-0.02,0.03-0.04,0.07-0.1c9.4,0,18.82,0,28.26,0c0-2.2,0-4.37,0-6.58c-9.46,0-18.9,0-28.33,0c0-1.73-0.04-3.42,0.01-5.11
	c0.03-1.05,0.47-1.98,1.24-2.73c1.09-1.06,2.44-1.42,3.91-1.42c7.56-0.01,15.11,0,22.67,0c0.16,0,0.33,0,0.51,0
	C111.01,7.94,111.01,5.3,111.01,2.62z"/>
<path class="st0" d="M54.8,31.93c-0.15-0.15-0.22-0.22-0.28-0.29c-5.33-6.18-10.66-12.37-15.98-18.56
	c-1.69-1.96-3.36-3.94-5.02-5.92c-0.72-0.86-1.34-1.81-2.09-2.66C30.36,3.28,29,2.68,27.37,2.97c-2.05,0.37-3.46,2.19-3.46,4.42
	c0,12.42,0,24.83,0,37.25c0,0.14,0,0.27,0,0.4c2.91,0,5.76,0,8.66,0c0-8.83,0-17.64,0-26.44c0.04-0.02,0.08-0.05,0.11-0.07
	c0.06,0.1,0.11,0.2,0.19,0.29c1.49,1.61,2.98,3.21,4.47,4.82c5.93,6.39,11.86,12.77,17.77,19.17c0.72,0.78,1.53,1.39,2.48,1.84
	c1.68,0.79,3.45,0.46,4.67-0.87c0.87-0.95,1.19-2.1,1.19-3.36c0-12.51,0-25.01,0-37.52c0-0.13-0.02-0.27-0.02-0.4
	c-2.9,0-5.76,0-8.64,0C54.8,12.29,54.8,22.05,54.8,31.93z"/>
<path class="st0" d="M210.89,2.92c-0.01,0.05-0.02,0.1-0.03,0.14c0.07,0.07,0.13,0.15,0.2,0.22c2.29,2.35,4.58,4.7,6.87,7.04
	c4.21,4.31,8.42,8.62,12.63,12.92c0.2,0.21,0.29,0.41,0.29,0.7c-0.01,6.88-0.01,13.76-0.01,20.64c0,0.16,0,0.32,0,0.47
	c2.69,0,5.32,0,7.95,0c0.01-0.09,0.03-0.17,0.03-0.24c0.11-2.98,0.22-5.96,0.33-8.94c0.07-1.89,0.14-3.79,0.2-5.68
	c0.09-2.51,0.19-5.01,0.26-7.52c0.01-0.2-0.06-0.44-0.18-0.59c-5.38-6.34-10.77-12.68-16.15-19.02c-0.19-0.22-0.36-0.3-0.65-0.3
	c-2.65,0.06-5.31,0.11-7.96,0.14C213.42,2.93,212.15,2.92,210.89,2.92z"/>
<path class="st0" d="M12.56,11.71c-0.14,0.08-0.23,0.12-0.31,0.17c-2.67,1.65-5.34,3.3-8.02,4.94c-0.25,0.16-0.34,0.32-0.34,0.61
	C3.9,26.5,3.9,35.57,3.9,44.64c0,0.14,0,0.27,0,0.41c2.92,0,5.78,0,8.66,0C12.56,33.94,12.56,22.86,12.56,11.71z"/>
<path class="st1" d="M189.93,60.42c0,0-0.01,0-0.01,0c0,1.99,0,3.97,0,5.96c0,0.61,0.04,0.65,0.66,0.65c0.53,0,1.05,0,1.58,0
	c0.59,0,0.64-0.05,0.64-0.63c0-3.32,0-6.64,0-9.96c0-0.13-0.03-0.26,0.01-0.38c0.04-0.12,0.12-0.29,0.21-0.31
	c0.13-0.03,0.29,0.03,0.42,0.1c0.08,0.04,0.11,0.17,0.15,0.26c1.06,2.36,2.12,4.71,3.19,7.07c0.36,0.8,0.72,1.61,1.11,2.4
	c0.37,0.74,0.89,1.34,1.79,1.4c0.67,0.04,1.36,0.04,2.03,0c0.71-0.04,1.2-0.46,1.57-1.05c0.14-0.23,0.28-0.46,0.39-0.71
	c1.36-3,2.71-5.99,4.06-8.99c0.05-0.12,0.08-0.27,0.18-0.33c0.13-0.09,0.32-0.15,0.47-0.14c0.06,0,0.14,0.2,0.17,0.33
	c0.03,0.11,0.01,0.23,0.01,0.34c0,3.33,0,6.66,0,10c0,0.51,0.1,0.6,0.61,0.6c0.54,0,1.08,0,1.62,0c0.64,0,0.71-0.07,0.71-0.7
	c0-3.61,0-7.23,0-10.84c0-0.45-0.03-0.89-0.07-1.34c-0.08-0.85-0.53-1.27-1.38-1.28c-0.92-0.01-1.85,0.01-2.77-0.01
	c-0.77-0.02-1.29,0.34-1.63,1.01c-0.09,0.18-0.17,0.37-0.26,0.56c-1.37,3.16-2.74,6.32-4.11,9.48c-0.11,0.26-0.24,0.48-0.57,0.48
	c-0.31,0-0.43-0.21-0.54-0.46c-1.15-2.65-2.3-5.31-3.46-7.96c-0.33-0.75-0.65-1.5-1.01-2.24c-0.29-0.6-0.81-0.86-1.47-0.86
	c-0.91,0-1.82-0.01-2.73,0c-1.14,0.02-1.57,0.43-1.58,1.56C189.91,56.42,189.93,58.42,189.93,60.42z"/>
<path class="st0" d="M243.97,19.69C249.5,14,254.98,8.36,260.52,2.65c-0.23,0-0.35,0-0.48,0c-3.55,0-7.11,0.01-10.66-0.01
	c-0.36,0-0.58,0.13-0.81,0.39c-2.58,3.07-5.17,6.13-7.76,9.2c-0.53,0.62-1.05,1.25-1.58,1.88
	C240.81,15.98,242.37,17.81,243.97,19.69z"/>
<path class="st1" d="M240.35,67.03c1.68,0,3.36,0.01,5.04,0c0.45,0,0.9-0.03,1.34-0.07c1.4-0.15,2.47-1.18,2.57-2.58
	c0.07-1.03,0.07-2.07-0.01-3.1c-0.09-1.24-0.94-2.17-2.15-2.47c-0.43-0.11-0.88-0.16-1.33-0.17c-2.55-0.02-5.1-0.01-7.66-0.01
	c-0.61,0-0.96-0.25-1.04-0.85c-0.06-0.45-0.06-0.92,0.01-1.37c0.08-0.55,0.39-0.78,0.95-0.83c0.14-0.01,0.28-0.01,0.42-0.01
	c3.26,0,6.52,0,9.77,0c0.5,0,0.57-0.08,0.58-0.58c0-0.54,0-1.08,0-1.61c0-0.43-0.09-0.53-0.52-0.52c-3.77,0-7.54-0.01-11.31,0.02
	c-1.55,0.01-2.67,0.97-2.88,2.51c-0.13,0.91-0.12,1.84-0.06,2.76c0.1,1.75,1.27,2.87,3.02,2.89c2.56,0.04,5.13,0.01,7.7,0.02
	c0.25,0,0.51,0.02,0.76,0.06c0.4,0.06,0.67,0.32,0.72,0.7c0.06,0.47,0.1,0.95,0.05,1.41c-0.07,0.75-0.28,0.93-1.03,1.03
	c-0.2,0.03-0.41,0.04-0.61,0.04c-3.35,0-6.7,0-10.04,0c-0.52,0-0.58,0.07-0.58,0.57c0,0.51,0,1.02,0,1.54c0,0.5,0.11,0.61,0.61,0.61
	C236.55,67.03,238.45,67.03,240.35,67.03z"/>
<path class="st1" d="M10.38,67.03c0.96,0,1.92,0.01,2.89,0c1.17-0.01,2.33,0,3.49-0.08c1.47-0.11,2.55-1.29,2.6-2.75
	c0.03-0.88,0.03-1.77,0-2.65c-0.05-1.56-1.18-2.72-2.75-2.83c-0.82-0.05-1.64-0.07-2.46-0.07c-1.99-0.01-3.98,0-5.96,0
	c-0.67,0-1.04-0.37-1.07-1.04c-0.01-0.22,0-0.44,0-0.65c0-1.03,0.33-1.36,1.35-1.36c3.28,0,6.57,0,9.85,0
	c0.46,0,0.57-0.11,0.58-0.56c0.01-0.54,0.01-1.08,0-1.61c-0.01-0.44-0.11-0.55-0.55-0.55c-3.77,0-7.54-0.03-11.31,0.03
	c-1.37,0.02-2.57,0.71-2.83,2.37c-0.16,1.04-0.17,2.13-0.03,3.17c0.24,1.73,1.3,2.59,3.06,2.61c2.54,0.03,5.08,0.01,7.62,0.01
	c0.23,0,0.46,0.02,0.69,0.06c0.49,0.08,0.78,0.39,0.8,0.88c0.02,0.45,0.02,0.9,0,1.34c-0.02,0.55-0.33,0.86-0.89,0.91
	c-0.32,0.03-0.64,0.06-0.96,0.06c-3.27,0-6.54,0-9.81,0c-0.52,0-0.57,0.05-0.57,0.57c0,0.53,0,1.05,0,1.58
	c0,0.49,0.08,0.57,0.59,0.57C6.58,67.03,8.48,67.03,10.38,67.03z"/>
<path class="st1" d="M84.3,67.03c1.51,0,3.03,0.01,4.54,0c0.61,0,1.23-0.02,1.84-0.08c1.28-0.13,2.32-0.98,2.48-2.25
	c0.15-1.14,0.15-2.33,0.04-3.48c-0.11-1.22-0.86-2.07-2.08-2.39c-0.44-0.12-0.91-0.18-1.36-0.18c-2.57-0.02-5.13-0.01-7.7-0.01
	c-0.65,0-1.02-0.37-1.05-1.02c-0.01-0.23,0-0.46,0-0.69c0-1.03,0.32-1.35,1.36-1.35c3.27,0,6.54,0,9.81,0c0.48,0,0.59-0.11,0.6-0.58
	c0.01-0.53,0.01-1.05,0-1.58c-0.01-0.46-0.1-0.57-0.57-0.57c-3.76,0-7.52-0.01-11.28,0.02c-1.5,0.01-2.62,0.91-2.86,2.4
	c-0.15,0.9-0.09,1.84-0.08,2.75c0.02,1.72,1.22,2.98,2.94,3c2.59,0.04,5.18,0.02,7.77,0.02c0.23,0,0.46,0.02,0.69,0.06
	c0.51,0.08,0.81,0.39,0.83,0.9c0.02,0.45,0.02,0.9,0,1.34c-0.03,0.53-0.34,0.85-0.87,0.89c-0.41,0.04-0.82,0.06-1.23,0.06
	c-3.19,0-6.39,0-9.58,0c-0.5,0-0.56,0.05-0.56,0.55c0,0.53,0,1.05,0,1.58c0,0.52,0.08,0.6,0.61,0.6
	C80.5,67.03,82.4,67.03,84.3,67.03z"/>
<path class="st1" d="M160.64,58.63c-1.83,0-3.67-0.01-5.5,0.01c-0.36,0-0.46-0.13-0.42-0.45c0.03-0.24,0.04-0.48,0.06-0.72
	c0.1-1.03,0.61-1.62,1.59-1.79c0.35-0.06,0.71-0.09,1.07-0.09c2.94-0.01,5.88,0,8.81,0c0.5,0,0.6-0.11,0.61-0.61
	c0-0.45,0-0.9,0-1.35c0-0.73-0.04-0.77-0.75-0.77c-2.82,0-5.64-0.01-8.47,0.01c-0.78,0.01-1.56,0.05-2.33,0.17
	c-1.54,0.25-2.72,1.02-3.19,2.57c-0.2,0.68-0.32,1.4-0.34,2.11c-0.05,1.32-0.03,2.64-0.01,3.96c0.01,0.62,0.05,1.25,0.16,1.87
	c0.28,1.65,1.19,2.79,2.87,3.18c0.64,0.15,1.31,0.28,1.97,0.29c3.19,0.03,6.39,0.01,9.58,0.02c0.35,0,0.52-0.17,0.52-0.51
	c0-0.5,0-1,0-1.5c0-0.68-0.04-0.71-0.72-0.71c-3.08-0.02-6.15-0.04-9.23-0.06c-1.24-0.01-1.91-0.56-2.11-1.74
	c-0.05-0.3-0.07-0.61-0.08-0.92c-0.02-0.51,0.02-0.54,0.53-0.54c2.81,0,5.62,0,8.43,0c0.83,0,1.67,0,2.5,0
	c0.47,0,0.53-0.06,0.53-0.54c0-0.41,0-0.82,0-1.23c0-0.56-0.08-0.64-0.64-0.64C164.25,58.63,162.44,58.63,160.64,58.63z"/>
<path class="st1" d="M122.62,52.85c-2.59,0-5.18,0-7.78,0c-0.55,0-0.6,0.05-0.6,0.59c0,0.55,0,1.1,0,1.65c0,0.5,0.06,0.56,0.55,0.56
	c1.92,0,3.85,0,5.77,0c0.54,0,0.54,0,0.54,0.55c0,3.41,0,6.82,0,10.23c0,0.52,0.07,0.59,0.6,0.59c0.6,0,1.21,0,1.81,0
	c0.55,0,0.61-0.06,0.61-0.62c0-3.4,0-6.79,0-10.19c0-0.56,0-0.56,0.58-0.56c1.9,0,3.8,0,5.7,0c0.54,0,0.64-0.1,0.65-0.66
	c0-0.47,0-0.95,0-1.42c0-0.64-0.08-0.73-0.74-0.73C127.75,52.85,125.19,52.85,122.62,52.85z"/>
<path class="st1" d="M48.07,60.44c-0.13-0.16-0.23-0.27-0.32-0.39c-1.68-2.26-3.36-4.53-5.03-6.8c-0.21-0.29-0.45-0.42-0.8-0.41
	c-0.71,0.02-1.41,0-2.12,0.01c-0.19,0-0.39,0.07-0.58,0.1c0.09,0.19,0.15,0.4,0.27,0.56c2.25,2.96,4.51,5.91,6.75,8.87
	c0.15,0.2,0.24,0.48,0.25,0.73c0.03,1.1,0.01,2.2,0.01,3.31c0,0.53,0.07,0.6,0.59,0.61c0.62,0,1.23,0,1.85,0
	c0.49,0,0.59-0.1,0.59-0.58c0-1.14-0.01-2.28,0.01-3.42c0-0.21,0.09-0.45,0.22-0.62c2.31-3.02,4.64-6.03,6.96-9.05
	c0.08-0.11,0.11-0.26,0.17-0.4c-0.13-0.04-0.26-0.1-0.39-0.1c-0.77-0.01-1.54,0.01-2.31-0.01c-0.33-0.01-0.54,0.12-0.74,0.38
	c-1.42,1.92-2.84,3.83-4.27,5.74C48.82,59.44,48.46,59.92,48.07,60.44z"/>
<path class="st0" d="M3.94,12.47c0.11-0.05,0.16-0.06,0.2-0.09c2.72-1.65,5.43-3.29,8.14-4.96c0.13-0.08,0.22-0.31,0.22-0.47
	c0.02-1.24,0-2.49,0.02-3.73c0.01-0.35-0.12-0.43-0.44-0.42c-2.55,0.01-5.1,0.01-7.66,0c-0.36,0-0.48,0.09-0.48,0.47
	c0.02,2.59,0.01,5.17,0.01,7.76C3.94,11.49,3.94,11.95,3.94,12.47z"/>
<g>
	<path d="M151.84,29.47c0.16-0.05,0.27-0.08,0.38-0.11c5.91-1.69,9.96-7.02,9.92-13.16c-0.02-3.94-1.47-7.3-4.34-10
		c-2.42-2.27-5.32-3.55-8.65-3.57c-9.3-0.04-18.6-0.01-27.9-0.01h-0.41V45.2h9.93V30.01h0.49c3.83,0,7.65,0,11.47-0.01
		c0.37-0.01,0.58,0.11,0.79,0.4c3.55,4.78,7.12,9.55,10.68,14.33c0.18,0.25,0.37,0.36,0.69,0.36c2.76-0.02,5.52-0.01,8.27-0.01h0.5
		C159.69,39.84,155.78,34.67,151.84,29.47z M147.89,22.45c-6.02,0.03-12.03,0.02-18.05,0.02c-0.1,0-0.2-0.01-0.34-0.02V11.29
		c0.16-0.01,0.3-0.02,0.43-0.02h17.55c1.73,0,3.3,0.42,4.57,1.67c2.91,2.87,1.82,7.8-2.06,9.14
		C149.32,22.31,148.59,22.45,147.89,22.45z"/>
</g>
<path d="M201.16,27.79c-3.32,0-6.6,0-9.91,0c0-2.62,0-5.22,0-7.84c6.18,0,12.37,0,18.57,0c0.01,0.04,0.03,0.09,0.03,0.14
	c0,3.95,0.12,7.9-0.04,11.84c-0.2,4.8-2.2,8.74-6.29,11.46c-1.74,1.16-3.69,1.69-5.78,1.69c-4.49,0-8.98-0.04-13.47,0.01
	c-3.43,0.04-6.38-1.11-8.94-3.31c-2.6-2.23-4.3-5.02-4.91-8.42c-0.11-0.63-0.18-1.27-0.18-1.91c-0.01-5.57,0-11.15-0.01-16.72
	c-0.01-3.96,1.64-7.08,4.81-9.39c2.47-1.81,5.29-2.7,8.35-2.71c7.43-0.03,14.86-0.01,22.29-0.01c0.15,0,0.3,0,0.48,0
	c0,3.05,0,6.07,0,9.14c-0.16,0-0.33,0-0.49,0c-6.57,0-13.14,0-19.71,0c-1.56,0-3.07,0.2-4.46,0.95c-1.62,0.86-2.58,2.15-2.58,4.04
	c0,4.24-0.01,8.48,0.02,12.72c0.01,1.82,0.92,3.25,2.22,4.44c1.39,1.27,3.02,1.91,4.93,1.88c3.42-0.05,6.85-0.02,10.28-0.02
	c1.62,0,2.81-0.78,3.67-2.1c0.82-1.26,1.13-2.68,1.15-4.16C201.16,28.94,201.16,28.38,201.16,27.79z"/>
<path d="M111.01,2.62c0,2.67,0,5.32,0,8.01c-0.18,0-0.35,0-0.51,0c-7.56,0-15.11,0-22.67,0c-1.47,0-2.81,0.37-3.91,1.42
	c-0.77,0.75-1.21,1.68-1.24,2.73c-0.05,1.69-0.01,3.38-0.01,5.11c9.43,0,18.87,0,28.33,0c0,2.21,0,4.38,0,6.58
	c-9.44,0-18.87,0-28.26,0c-0.04,0.06-0.07,0.08-0.07,0.1c0.03,1.62-0.21,3.26,0.3,4.85c0.39,1.22,1.03,2.28,1.98,3.15
	c0.9,0.82,1.95,1.21,3.18,1.21c7.45-0.02,14.91-0.01,22.36-0.01c0.16,0,0.33,0,0.51,0c0,3.11,0,6.18,0,9.3c-0.15,0-0.28,0-0.42,0
	c-8.36,0-16.73,0-25.09,0c-2.39,0-4.49-0.86-6.36-2.28c-2.61-1.98-4.33-4.54-4.97-7.78c-0.12-0.59-0.17-1.19-0.18-1.79
	c-0.01-6.68,0-13.35-0.01-20.03c-0.01-3.39,1.39-6.07,4.05-8.1c2.18-1.66,4.67-2.48,7.41-2.48c8.35-0.01,16.7,0,25.06,0
	C110.66,2.62,110.82,2.62,111.01,2.62z"/>
<path d="M54.8,31.93c0-9.88,0-19.64,0-29.42c2.88,0,5.74,0,8.64,0c0.01,0.13,0.02,0.26,0.02,0.4c0,12.51,0,25.01,0,37.52
	c0,1.26-0.32,2.41-1.19,3.36c-1.22,1.33-2.99,1.65-4.67,0.87c-0.95-0.45-1.76-1.06-2.48-1.84c-5.92-6.4-11.85-12.78-17.77-19.17
	c-1.49-1.61-2.98-3.21-4.47-4.82c-0.08-0.08-0.12-0.19-0.19-0.29c-0.04,0.02-0.08,0.05-0.11,0.07c0,8.8,0,17.61,0,26.44
	c-2.9,0-5.75,0-8.66,0c0-0.13,0-0.27,0-0.4c0-12.42,0-24.83,0-37.25c0-2.24,1.4-4.06,3.46-4.42c1.63-0.29,2.99,0.31,4.06,1.52
	c0.74,0.84,1.36,1.79,2.09,2.66c1.66,1.99,3.33,3.96,5.02,5.92c5.32,6.19,10.65,12.37,15.98,18.56
	C54.58,31.71,54.65,31.77,54.8,31.93z"/>
<path d="M210.89,2.92c1.27,0,2.54,0.01,3.8,0c2.65-0.04,5.31-0.09,7.96-0.14c0.28-0.01,0.46,0.08,0.65,0.3
	c5.38,6.34,10.77,12.67,16.15,19.02c0.12,0.15,0.19,0.39,0.18,0.59c-0.08,2.51-0.17,5.01-0.26,7.52c-0.07,1.89-0.13,3.79-0.2,5.68
	c-0.11,2.98-0.22,5.96-0.33,8.94c0,0.08-0.02,0.15-0.03,0.24c-2.64,0-5.26,0-7.95,0c0-0.15,0-0.31,0-0.47c0-6.88,0-13.76,0.01-20.64
	c0-0.29-0.09-0.5-0.29-0.7c-4.22-4.3-8.42-8.61-12.63-12.92c-2.29-2.35-4.58-4.7-6.87-7.04c-0.07-0.07-0.13-0.14-0.2-0.22
	C210.86,3.01,210.87,2.97,210.89,2.92z"/>
<path d="M12.56,11.71c0,11.15,0,22.23,0,33.34c-2.88,0-5.74,0-8.66,0c0-0.13,0-0.27,0-0.41c0-9.07,0-18.15-0.01-27.22
	c0-0.29,0.08-0.45,0.34-0.61c2.68-1.64,5.35-3.29,8.02-4.94C12.33,11.83,12.42,11.78,12.56,11.71z"/>
<path class="st1" d="M189.93,60.42c0-2-0.02-4,0.01-6c0.01-1.13,0.44-1.54,1.58-1.56c0.91-0.02,1.82,0,2.73,0
	c0.66,0,1.18,0.26,1.47,0.86c0.36,0.74,0.68,1.49,1.01,2.24c1.16,2.65,2.31,5.3,3.46,7.96c0.11,0.25,0.22,0.46,0.54,0.46
	c0.33,0,0.45-0.22,0.57-0.48c1.37-3.16,2.74-6.32,4.11-9.48c0.08-0.19,0.16-0.38,0.26-0.56c0.33-0.67,0.85-1.02,1.63-1.01
	c0.92,0.02,1.85,0,2.77,0.01c0.85,0.01,1.3,0.44,1.38,1.28c0.04,0.44,0.07,0.89,0.07,1.34c0.01,3.61,0,7.23,0,10.84
	c0,0.62-0.08,0.7-0.71,0.7c-0.54,0-1.08,0-1.62,0c-0.51,0-0.61-0.1-0.61-0.6c0-3.33,0-6.66,0-10c0-0.12,0.02-0.24-0.01-0.34
	c-0.03-0.12-0.11-0.32-0.17-0.33c-0.16,0-0.34,0.05-0.47,0.14c-0.09,0.06-0.12,0.22-0.18,0.33c-1.35,3-2.71,6-4.06,8.99
	c-0.11,0.24-0.25,0.48-0.39,0.71c-0.36,0.58-0.86,1.01-1.57,1.05c-0.68,0.04-1.36,0.05-2.03,0c-0.89-0.06-1.42-0.66-1.79-1.4
	c-0.4-0.79-0.75-1.6-1.11-2.4c-1.07-2.36-2.13-4.71-3.19-7.07c-0.04-0.09-0.08-0.22-0.15-0.26c-0.12-0.07-0.29-0.13-0.42-0.1
	c-0.09,0.02-0.18,0.19-0.21,0.31c-0.04,0.12-0.01,0.25-0.01,0.38c0,3.32,0,6.64,0,9.96c0,0.58-0.05,0.63-0.64,0.63
	c-0.53,0-1.05,0-1.58,0c-0.63,0-0.66-0.03-0.66-0.65c0-1.99,0-3.97,0-5.96C189.92,60.42,189.93,60.42,189.93,60.42z"/>
<path class="st1" d="M243.97,19.69c-1.6-1.88-3.15-3.71-4.74-5.58c0.53-0.63,1.05-1.25,1.58-1.88c2.59-3.06,5.18-6.13,7.76-9.2
	c0.22-0.27,0.45-0.39,0.81-0.39c3.55,0.01,7.11,0.01,10.66,0.01c0.13,0,0.26,0,0.48,0C254.98,8.36,249.5,14,243.97,19.69z"/>
<path class="st1" d="M240.35,67.03c-1.9,0-3.8,0-5.69,0c-0.5,0-0.6-0.11-0.61-0.61c0-0.51,0-1.02,0-1.54c0-0.51,0.07-0.57,0.58-0.57
	c3.35,0,6.7,0,10.04,0c0.2,0,0.41-0.01,0.61-0.04c0.75-0.11,0.96-0.29,1.03-1.03c0.05-0.47,0.01-0.95-0.05-1.41
	c-0.05-0.38-0.32-0.64-0.72-0.7c-0.25-0.04-0.51-0.06-0.76-0.06c-2.57-0.01-5.13,0.02-7.7-0.02c-1.75-0.03-2.92-1.15-3.02-2.89
	c-0.05-0.92-0.06-1.85,0.06-2.76c0.22-1.54,1.33-2.5,2.88-2.51c3.77-0.03,7.54-0.02,11.31-0.02c0.43,0,0.52,0.1,0.52,0.52
	c0,0.54,0,1.08,0,1.61c0,0.5-0.08,0.58-0.58,0.58c-3.26,0-6.52,0-9.77,0c-0.14,0-0.28-0.01-0.42,0.01
	c-0.56,0.05-0.87,0.28-0.95,0.83c-0.07,0.45-0.07,0.92-0.01,1.37c0.08,0.6,0.43,0.84,1.04,0.85c2.55,0,5.1-0.01,7.66,0.01
	c0.44,0,0.9,0.06,1.33,0.17c1.21,0.3,2.06,1.23,2.15,2.47c0.07,1.03,0.08,2.07,0.01,3.1c-0.1,1.4-1.17,2.43-2.57,2.58
	c-0.44,0.05-0.89,0.07-1.34,0.07C243.71,67.03,242.03,67.03,240.35,67.03z"/>
<path class="st1" d="M10.38,67.03c-1.9,0-3.8,0-5.7,0c-0.5,0-0.59-0.08-0.59-0.57c0-0.53,0-1.05,0-1.58c0-0.52,0.05-0.57,0.57-0.57
	c3.27,0,6.54,0,9.81,0c0.32,0,0.64-0.03,0.96-0.06c0.56-0.05,0.87-0.37,0.89-0.91c0.02-0.45,0.02-0.9,0-1.34
	c-0.02-0.49-0.32-0.81-0.8-0.88c-0.23-0.03-0.46-0.06-0.69-0.06c-2.54-0.01-5.08,0.02-7.62-0.01c-1.75-0.02-2.82-0.88-3.06-2.61
	c-0.14-1.04-0.13-2.13,0.03-3.17c0.26-1.66,1.46-2.35,2.83-2.37c3.77-0.06,7.54-0.03,11.31-0.03c0.44,0,0.54,0.11,0.55,0.55
	c0.01,0.54,0.01,1.08,0,1.61c0,0.45-0.12,0.56-0.58,0.56c-3.28,0-6.57,0-9.85,0c-1.02,0-1.35,0.33-1.35,1.36
	c0,0.22-0.01,0.44,0,0.65c0.03,0.67,0.4,1.04,1.07,1.04c1.99,0,3.98-0.01,5.96,0c0.82,0,1.64,0.02,2.46,0.07
	c1.57,0.1,2.7,1.26,2.75,2.83c0.03,0.88,0.03,1.77,0,2.65c-0.05,1.46-1.13,2.64-2.6,2.75c-1.16,0.09-2.33,0.07-3.49,0.08
	C12.3,67.04,11.34,67.03,10.38,67.03z"/>
<path class="st1" d="M84.3,67.03c-1.9,0-3.8,0-5.7,0c-0.52,0-0.6-0.08-0.61-0.6c0-0.53,0-1.05,0-1.58c0-0.49,0.06-0.55,0.56-0.55
	c3.19,0,6.39,0,9.58,0c0.41,0,0.82-0.02,1.23-0.06c0.53-0.05,0.85-0.36,0.87-0.89c0.02-0.45,0.02-0.9,0-1.34
	c-0.02-0.51-0.32-0.82-0.83-0.9c-0.23-0.04-0.46-0.06-0.69-0.06c-2.59-0.01-5.18,0.01-7.77-0.02c-1.72-0.03-2.93-1.28-2.94-3
	c-0.01-0.92-0.06-1.86,0.08-2.75c0.24-1.49,1.36-2.39,2.86-2.4c3.76-0.03,7.52-0.02,11.28-0.02c0.47,0,0.56,0.1,0.57,0.57
	c0.01,0.53,0.01,1.05,0,1.58c0,0.47-0.12,0.58-0.6,0.58c-3.27,0-6.54,0-9.81,0c-1.04,0-1.36,0.32-1.36,1.35c0,0.23-0.01,0.46,0,0.69
	c0.02,0.64,0.4,1.02,1.05,1.02c2.57,0,5.13-0.01,7.7,0.01c0.46,0,0.92,0.06,1.36,0.18c1.22,0.32,1.96,1.17,2.08,2.39
	c0.11,1.15,0.1,2.33-0.04,3.48c-0.16,1.27-1.2,2.13-2.48,2.25c-0.61,0.06-1.23,0.07-1.84,0.08C87.33,67.03,85.81,67.03,84.3,67.03z"
	/>
<path class="st1" d="M160.64,58.63c1.81,0,3.62,0,5.43,0c0.56,0,0.64,0.08,0.64,0.64c0,0.41,0,0.82,0,1.23
	c0,0.48-0.06,0.54-0.53,0.54c-0.83,0-1.67,0-2.5,0c-2.81,0-5.62,0-8.43,0c-0.51,0-0.55,0.04-0.53,0.54
	c0.01,0.31,0.03,0.61,0.08,0.92c0.19,1.17,0.86,1.73,2.11,1.74c3.08,0.02,6.15,0.04,9.23,0.06c0.69,0,0.72,0.04,0.72,0.71
	c0,0.5,0,1,0,1.5c0,0.35-0.17,0.51-0.52,0.51c-3.19,0-6.39,0.01-9.58-0.02c-0.66-0.01-1.32-0.14-1.97-0.29
	c-1.68-0.4-2.58-1.53-2.87-3.18c-0.11-0.61-0.15-1.24-0.16-1.87c-0.02-1.32-0.04-2.64,0.01-3.96c0.03-0.71,0.14-1.43,0.34-2.11
	c0.47-1.56,1.65-2.33,3.19-2.57c0.77-0.12,1.55-0.17,2.33-0.17c2.82-0.02,5.64-0.01,8.47-0.01c0.72,0,0.75,0.04,0.75,0.77
	c0,0.45,0,0.9,0,1.35c0,0.5-0.11,0.61-0.61,0.61c-2.94,0-5.88,0-8.81,0c-0.36,0-0.72,0.03-1.07,0.09c-0.98,0.18-1.49,0.77-1.59,1.79
	c-0.02,0.24-0.04,0.48-0.06,0.72c-0.04,0.32,0.07,0.45,0.42,0.45C156.97,58.62,158.8,58.63,160.64,58.63z"/>
<path class="st1" d="M122.62,52.85c2.57,0,5.13,0,7.7,0c0.65,0,0.73,0.08,0.74,0.73c0,0.47,0,0.95,0,1.42
	c-0.01,0.55-0.11,0.66-0.65,0.66c-1.9,0-3.8,0-5.7,0c-0.58,0-0.58,0-0.58,0.56c0,3.4,0,6.79,0,10.19c0,0.57-0.06,0.62-0.61,0.62
	c-0.6,0-1.21,0-1.81,0c-0.53,0-0.6-0.07-0.6-0.59c0-3.41,0-6.82,0-10.23c0-0.55,0-0.55-0.54-0.55c-1.92,0-3.85,0-5.77,0
	c-0.49,0-0.55-0.05-0.55-0.56c0-0.55,0-1.1,0-1.65c0-0.54,0.05-0.59,0.6-0.59C117.44,52.85,120.03,52.85,122.62,52.85z"/>
<path class="st1" d="M48.07,60.44c0.39-0.52,0.75-0.99,1.11-1.47c1.43-1.91,2.85-3.82,4.27-5.74c0.19-0.26,0.41-0.39,0.74-0.38
	c0.77,0.01,1.54,0,2.31,0.01c0.13,0,0.26,0.07,0.39,0.1c-0.05,0.13-0.08,0.29-0.17,0.4c-2.32,3.02-4.64,6.03-6.96,9.05
	c-0.13,0.17-0.22,0.41-0.22,0.62c-0.02,1.14-0.01,2.28-0.01,3.42c0,0.48-0.1,0.58-0.59,0.58c-0.62,0-1.23,0-1.85,0
	c-0.52,0-0.59-0.07-0.59-0.61c0-1.1,0.01-2.2-0.01-3.31c-0.01-0.25-0.1-0.54-0.25-0.73c-2.24-2.96-4.5-5.91-6.75-8.87
	c-0.12-0.16-0.18-0.37-0.27-0.56c0.19-0.03,0.39-0.1,0.58-0.1c0.71-0.01,1.41,0.01,2.12-0.01c0.36-0.01,0.59,0.12,0.8,0.41
	c1.67,2.27,3.35,4.53,5.03,6.8C47.84,60.17,47.94,60.28,48.07,60.44z"/>
<path class="st1" d="M3.94,12.47c0-0.52,0-0.98,0-1.44c0-2.59,0.01-5.17-0.01-7.76c0-0.38,0.12-0.47,0.48-0.47
	c2.55,0.01,5.1,0.01,7.66,0c0.33,0,0.45,0.07,0.44,0.42c-0.02,1.24,0,2.48-0.02,3.73c0,0.16-0.09,0.39-0.22,0.47
	c-2.71,1.66-5.42,3.31-8.14,4.96C4.1,12.41,4.05,12.42,3.94,12.47z"/>
</svg>
